<svg width="79" height="67" viewBox="0 0 79 67" fill="none" xmlns="http://www.w3.org/2000/svg">
<path d="M76.3579 11.1781V56.3464C76.3579 60.9816 72.3686 64.7375 67.4458 64.7375H10.9284C6.00555 64.7375 2.01628 60.9816 2.01628 56.3464V11.1781" stroke="#666666" stroke-width="4" stroke-linecap="round" stroke-linejoin="round"/>
<path d="M16.6599 11.189H25.7619H61.7197" stroke="#666666" stroke-width="4" stroke-linecap="round" stroke-linejoin="round"/>
<path d="M16.6545 2C16.6545 2 2 2.83042 2 6.92824V54.9081C3.84875 52.8619 6.11142 51.2323 8.63792 50.1272C11.1644 49.0221 13.897 48.4667 16.6545 48.4981V2Z" fill="#BCDAE1" stroke="#666666" stroke-width="4" stroke-linecap="round" stroke-linejoin="round"/>
<path d="M61.7142 2C61.7142 2 76.3687 2.83042 76.3687 6.92824V54.9081C74.5197 52.8622 72.257 51.2327 69.7306 50.1276C67.2041 49.0226 64.4716 48.4671 61.7142 48.4981V2Z" fill="#BCDAE1" stroke="#666666" stroke-width="4" stroke-linecap="round" stroke-linejoin="round"/>
<path d="M27.2762 27.2762H48.3678V48.0585" stroke="#666666" stroke-width="4" stroke-linecap="round" stroke-linejoin="round" stroke-dasharray="13.07 13.07"/>
<path d="M48.3678 48.0585H27.2762V27.2762" stroke="#666666" stroke-width="4" stroke-linecap="round" stroke-linejoin="round"/>
</svg>
