<svg width="57" height="82" viewBox="0 0 57 82" fill="none" xmlns="http://www.w3.org/2000/svg">
<path d="M36.8381 23.1231C36.8467 17.6046 33.0532 13.125 28.365 13.1176C23.6768 13.1103 19.8693 17.5779 19.8606 23.0965C19.8519 28.615 23.6454 33.0946 28.3336 33.102C33.0218 33.1093 36.8294 28.6416 36.8381 23.1231Z" fill="#BCDAE1" stroke="#666666" stroke-width="4" stroke-linecap="round" stroke-linejoin="round"/>
<path d="M31.7974 20.8073C31.7974 22.2999 30.2343 23.5211 28.3129 23.5211C26.3916 23.5211 24.8393 22.3053 24.8393 20.8073C24.8393 19.3093 26.4024 18.0935 28.3238 18.0935C30.2452 18.0935 31.8029 19.3093 31.7974 20.8073Z" fill="white" stroke="#666666" stroke-width="4" stroke-linecap="round" stroke-linejoin="round"/>
<path d="M34.6787 2.01996L21.9728 2L21.963 8.22543L34.669 8.24539L34.6787 2.01996Z" fill="#BCDAE1" stroke="#666666" stroke-width="4" stroke-linecap="round" stroke-linejoin="round"/>
<path d="M30.8696 8.22847L25.7677 8.22046L25.76 13.1053L30.8619 13.1133L30.8696 8.22847Z" fill="#BCDAE1" stroke="#666666" stroke-width="4" stroke-linecap="round" stroke-linejoin="round"/>
<path d="M25.0781 29.4969L2 78.9747L2.01628 70.5022L21.7455 27.2064" stroke="#666666" stroke-width="4" stroke-linecap="round" stroke-linejoin="round"/>
<path d="M31.5315 29.5077L54.463 79.0506L54.4739 70.5782L34.8749 27.2227" stroke="#666666" stroke-width="4" stroke-linecap="round" stroke-linejoin="round"/>
<path d="M31.2709 64.7543L25.2355 64.7435L25.2518 56.0105L31.2872 56.0213L31.2764 60.3851L31.2709 64.7543Z" fill="#BCDAE1" stroke="#666666" stroke-width="4" stroke-linecap="round" stroke-linejoin="round"/>
<path d="M31.6346 60.1735L45.7354 60.1952" stroke="#666666" stroke-width="4" stroke-linecap="round" stroke-linejoin="round"/>
<path d="M10.7873 60.141L25.0347 60.1627" stroke="#666666" stroke-width="4" stroke-linecap="round" stroke-linejoin="round"/>
<path d="M49.7844 60.2006H52.1183" stroke="#666666" stroke-width="4" stroke-linecap="round" stroke-linejoin="round"/>
<path d="M4.39899 60.1301L6.73827 60.1355" stroke="#666666" stroke-width="4" stroke-linecap="round" stroke-linejoin="round"/>
</svg>
