<svg width="72" height="44" viewBox="0 0 72 44" fill="none" xmlns="http://www.w3.org/2000/svg">
<path d="M41.312 41.3119H21.6533C19.0724 41.3119 16.5167 40.8036 14.1323 39.8159C11.7478 38.8283 9.58128 37.3806 7.75631 35.5556C5.93133 33.7307 4.48369 31.5641 3.49602 29.1797C2.50835 26.7952 2 24.2396 2 21.6587C2 16.4458 4.07043 11.4464 7.75598 7.75981C11.4415 4.07325 16.4404 2.00144 21.6533 2C26.8671 2 31.8673 4.07117 35.5541 7.75789C39.2408 11.4446 41.312 16.4449 41.312 21.6587V41.3119Z" fill="#BCDAE1" stroke="#666666" stroke-width="4" stroke-linecap="round" stroke-linejoin="round"/>
<path d="M69.8285 35.9332H41.312V41.3173H69.8285V35.9332Z" stroke="#666666" stroke-width="4" stroke-linecap="round" stroke-linejoin="round"/>
<path d="M25.7126 31.3676C31.0688 29.1183 33.5874 22.9528 31.3381 17.5967C29.0888 12.2405 22.9233 9.72193 17.5671 11.9713C12.211 14.2206 9.69239 20.386 11.9417 25.7422C14.191 31.0983 20.3565 33.6169 25.7126 31.3676Z" fill="white" stroke="#666666" stroke-width="4" stroke-linecap="round" stroke-linejoin="round"/>
<path d="M47.1249 19.7211H41.312V26.0876H47.1249V19.7211Z" stroke="#666666" stroke-width="4" stroke-linecap="round" stroke-linejoin="round"/>
</svg>
